<?xml version="1.0" standalone="no"?><!DOCTYPE svg PUBLIC "-//W3C//DTD SVG 1.1//EN" "http://www.w3.org/Graphics/SVG/1.1/DTD/svg11.dtd"><svg t="1513061517971" class="icon" style="" viewBox="0 0 1024 1024" version="1.1" xmlns="http://www.w3.org/2000/svg" p-id="1842" xmlns:xlink="http://www.w3.org/1999/xlink" width="26" height="26"><defs><style type="text/css"></style></defs><path d="M938.489464 467.911876 84.871993 467.911876c-12.404518 0-22.463618 10.055007-22.463618 22.461571l0 22.463618c0 12.406564 10.0591 22.465664 22.463618 22.465664l853.617471 0c12.408611 0 22.465664-10.0591 22.465664-22.465664l0-22.463618C960.955128 477.966882 950.898075 467.911876 938.489464 467.911876zM96.103802 355.593787c14.626115 0 26.767644-9.441023 31.428803-22.463618l2.266623 0L129.799228 220.810035c0-49.624211 40.23026-89.854471 89.854471-89.854471l112.318088 0 0-2.266623c13.022595-4.66116 22.463618-16.802688 22.463618-31.428803 0-14.624069-9.441023-26.765597-22.463618-31.426757l0-2.266623L197.190081 63.566758c-74.435293 0-134.781706 60.344367-134.781706 134.779659L62.408375 333.13017l2.26867 0C69.336158 346.152764 81.477686 355.593787 96.103802 355.593787zM331.971787 896.987235l0-2.266623-112.318088 0c-49.624211 0-89.854471-40.23026-89.854471-89.854471L129.799228 692.546006l-2.266623 0c-4.66116-13.022595-16.802688-22.463618-31.428803-22.463618s-26.767644 9.441023-31.426757 22.463618l-2.26867 0 0 134.783753c0 74.435293 60.346413 134.779659 134.781706 134.779659l134.781706 0 0-2.266623c13.022595-4.66116 22.463618-16.802688 22.463618-31.428803C354.435405 913.789922 344.994382 901.648394 331.971787 896.987235zM826.171376 63.566758 691.38967 63.566758l0 2.266623c-13.022595 4.66116-22.461571 16.802688-22.461571 31.426757 0 14.626115 9.438976 26.767644 22.461571 31.428803l0 2.266623 112.318088 0c49.626257 0 89.856517 40.23026 89.856517 89.854471L893.564275 333.13017l2.266623 0c4.659113 13.022595 16.800641 22.463618 31.426757 22.463618 14.626115 0 26.767644-9.441023 31.428803-22.463618l2.26867 0L960.955128 198.346417C960.955128 123.911124 900.608715 63.566758 826.171376 63.566758zM927.257655 670.082388c-14.626115 0-26.767644 9.441023-31.426757 22.463618l-2.266623 0 0 112.320135c0 49.624211-40.23026 89.854471-89.856517 89.854471l-112.318088 0 0 2.061962c-13.05841 4.64274-22.461571 16.98279-22.461571 31.631418 0 14.650675 9.403161 26.992771 22.461571 31.633465l0 2.061962 134.781706 0c74.437339 0 134.783753-60.344367 134.783753-134.779659L960.955128 692.546006l-2.26867 0C954.025299 679.523411 941.883771 670.082388 927.257655 670.082388z" p-id="1843" fill="#c5cbd8"></path></svg>